<svg width="16" height="20" viewBox="0 0 16 20" fill="none" xmlns="http://www.w3.org/2000/svg">
<path d="M7.62144 9.54074e-09C5.61324 -0.000100403 3.68616 0.7924 2.25904 2.20526C0.831909 3.61811 0.020082 5.53713 0 7.54523C0 12.7659 6.71639 18.5773 7.0022 18.825C7.17476 18.9726 7.39437 19.0537 7.62144 19.0537C7.84851 19.0537 8.06812 18.9726 8.24068 18.825C8.57412 18.5773 15.2429 12.7659 15.2429 7.54523C15.2228 5.53713 14.411 3.61811 12.9838 2.20526C11.5567 0.7924 9.62964 -0.000100403 7.62144 9.54074e-09ZM7.62144 16.8148C6.03046 15.3 1.90536 11.0987 1.90536 7.54523C1.90536 6.02923 2.50759 4.57532 3.57956 3.50335C4.65153 2.43137 6.10544 1.82915 7.62144 1.82915C9.13744 1.82915 10.5913 2.43137 11.6633 3.50335C12.7353 4.57532 13.3375 6.02923 13.3375 7.54523C13.3375 11.0701 9.21242 15.3 7.62144 16.8148Z" fill="#24314E"/>
</svg>
